<svg width="515" height="527" viewBox="0 0 515 527" fill="none" xmlns="http://www.w3.org/2000/svg">
<path fill-rule="evenodd" clip-rule="evenodd" d="M2.49743e-05 0H0V498.926L8.08135e-06 390.584H38.8889V426.092H33.3333L33.3333 461.599H44.4444V493.312H68.6667V504.541H137.333V498.926H171.667V521.385H206V515.771H240.333V487.697H274.667V482.082H309V487.697H343.333V527H377.667V487.697H412V515.771H470V455.851H475V417.752H485V379.654H475V341.556L510 341.556V303.9H490V190.048H495V151.95L480 151.95V113.852L500 113.852V75.7536H490V38.0983H465V5.05331L441.612 5.05331V20.2131L367.796 20.2131V45.4794H330.888V30.3196L294.408 30.3196V20.2131L257.5 20.2131V5.05329L220.592 5.05329V35.3729L184.112 35.3729V40.4261H147.204V20.2131L110.296 20.2131V25.2663L73.3875 25.2663V30.3196L50 30.3196L50 71.0153H16.6667V106.523H38.8889V142.031H44.4444L44.4444 177.538H22.2222L22.2222 213.046H1.576e-05L2.43187e-05 15.1598H3.05979e-06L2.49743e-05 0ZM515 0L465 3.17269e-06L50 2.20885e-06L2.49743e-05 0H515Z" fill="#222131"/>
</svg>
